<?xml version="1.0" standalone="no"?>
<!DOCTYPE svg PUBLIC "-//W3C//DTD SVG 20010904//EN"
 "http://www.w3.org/TR/2001/REC-SVG-20010904/DTD/svg10.dtd">
<svg version="1.0" xmlns="http://www.w3.org/2000/svg"
 width="370.000000pt" height="102.000000pt" viewBox="0 0 370.000000 102.000000"
 preserveAspectRatio="xMidYMid meet">

<g transform="translate(0.000000,102.000000) scale(0.100000,-0.100000)"
fill="#000000" stroke="none">
<path d="M520 530 l0 -200 285 0 285 0 0 200 0 200 -285 0 -285 0 0 -200z
m270 70 c5 -22 37 -42 52 -34 11 7 21 -37 10 -48 -15 -15 -42 -2 -42 18 0 21
-28 54 -45 54 -15 0 -47 -35 -39 -43 4 -3 3 -18 0 -32 -5 -21 -12 -26 -33 -23
-60 7 -54 69 8 78 25 4 37 13 47 33 16 32 34 31 42 -3z m155 -50 c3 -11 3 -29
0 -41 -5 -16 -14 -20 -38 -17 -25 2 -33 -2 -46 -26 -19 -34 -30 -35 -45 -5
-11 22 -26 33 -58 43 -23 7 -23 32 -2 40 21 8 45 -11 38 -29 -3 -7 6 -21 20
-31 25 -16 28 -16 45 0 11 10 17 25 14 37 -12 43 59 71 72 29z"/>
<path d="M670 530 c0 -13 7 -20 20 -20 13 0 20 7 20 20 0 13 -7 20 -20 20 -13
0 -20 -7 -20 -20z"/>
<path d="M822 539 c2 -6 8 -10 13 -10 5 0 11 4 13 10 2 6 -4 11 -13 11 -9 0
-15 -5 -13 -11z"/>
<path d="M890 530 c0 -16 5 -21 23 -18 12 2 22 10 22 18 0 8 -10 16 -22 18
-18 3 -23 -2 -23 -18z"/>
<path d="M757 534 c-8 -8 1 -24 14 -24 5 0 9 7 9 15 0 15 -12 20 -23 9z"/>
<path d="M1228 536 c-3 -150 -2 -156 17 -156 18 0 20 7 20 67 0 65 1 68 25 71
42 6 60 30 60 82 0 62 -16 81 -73 87 l-46 5 -3 -156z m81 130 c7 -9 11 -38 9
-73 -3 -55 -4 -58 -30 -61 l-28 -3 0 75 c0 68 2 76 19 76 10 0 24 -6 30 -14z"/>
<path d="M1388 549 c3 -98 0 -144 -8 -155 -10 -11 -8 -14 11 -14 23 0 24 2 21
61 -4 66 7 91 32 70 9 -8 16 -34 18 -69 3 -53 5 -57 28 -59 14 -1 19 0 13 3
-8 4 -13 26 -13 58 0 29 -5 57 -11 63 -8 8 -7 17 5 34 16 24 22 95 8 115 -12
18 -49 34 -79 34 l-28 0 3 -141z m70 119 c16 -16 16 -110 0 -126 -7 -7 -20
-12 -30 -12 -16 0 -18 9 -18 68 0 38 3 72 7 75 10 11 28 8 41 -5z"/>
<path d="M1561 672 c-18 -14 -23 -31 -28 -93 -9 -120 10 -199 48 -199 6 0 3 7
-5 16 -13 12 -16 39 -16 133 0 129 12 166 47 145 16 -10 18 -28 21 -137 2
-104 0 -128 -13 -141 -9 -9 -12 -16 -6 -16 18 0 40 31 47 66 3 19 4 74 2 121
-4 74 -8 89 -27 105 -29 23 -43 23 -70 0z"/>
<path d="M1685 535 c0 -131 2 -155 15 -155 13 0 15 19 13 117 l-2 118 17 -64
c10 -36 23 -66 29 -68 6 -2 19 27 29 69 l19 73 3 -45 c2 -24 2 -80 0 -122 -3
-72 -2 -78 17 -78 19 0 20 6 17 156 -3 138 -5 155 -20 152 -11 -2 -22 -27 -36
-83 -11 -44 -22 -73 -24 -65 -3 8 -13 44 -22 80 -12 50 -21 66 -36 68 -18 3
-19 -5 -19 -153z"/>
<path d="M1888 550 c3 -99 0 -145 -8 -156 -10 -11 -8 -14 11 -14 23 0 24 3 24
67 0 65 1 68 25 71 42 6 60 30 60 82 0 61 -16 81 -71 87 l-44 5 3 -142z m71
116 c7 -9 11 -38 9 -73 -3 -55 -4 -58 -30 -61 l-28 -3 0 69 c0 38 3 72 7 75
11 11 30 8 42 -7z"/>
<path d="M2021 663 c0 -28 1 -28 11 -5 6 12 17 22 25 22 12 0 13 -27 11 -150
-3 -144 -2 -150 17 -150 19 0 20 6 17 150 -3 128 -1 150 12 150 8 0 20 -8 25
-17 9 -16 10 -16 11 5 0 21 -4 22 -65 22 -64 0 -65 0 -64 -27z"/>
<path d="M2265 535 c0 -97 4 -155 10 -155 6 0 9 46 8 122 l-2 123 19 -68 c27
-103 33 -103 60 0 l19 68 -2 -123 c-2 -116 -1 -122 18 -122 19 0 20 7 20 155
0 138 -2 155 -17 155 -12 0 -21 -19 -34 -75 -10 -41 -20 -75 -24 -75 -3 0 -14
33 -25 72 -13 45 -26 74 -35 76 -13 2 -15 -20 -15 -153z"/>
<path d="M2500 625 c-7 -36 -10 -69 -6 -72 3 -4 6 6 6 21 0 15 4 25 9 22 11
-7 35 -192 26 -206 -4 -6 6 -10 24 -10 28 0 30 2 21 23 -5 12 -16 72 -25 132
-27 182 -35 195 -55 90z"/>
<path d="M2615 535 c0 -148 1 -155 20 -155 18 0 20 6 17 70 -3 56 -1 70 11 70
24 0 36 -23 39 -80 2 -44 7 -56 21 -58 15 -3 17 0 9 15 -15 28 -17 124 -3 158
17 39 7 96 -20 118 -12 9 -38 17 -58 17 l-36 0 0 -155z m85 126 c14 -27 13
-104 -2 -119 -7 -7 -20 -12 -30 -12 -16 0 -18 9 -18 75 0 68 2 75 20 75 10 0
24 -9 30 -19z"/>
<path d="M2775 535 l0 -155 25 0 c25 0 25 1 22 67 -2 43 0 64 6 58 16 -17 44
-103 37 -114 -4 -7 5 -11 23 -11 l30 0 -36 85 -35 85 23 53 c13 28 31 60 39
70 13 15 12 17 -6 17 -15 0 -20 -7 -20 -23 0 -12 -15 -50 -32 -82 l-31 -60 3
83 c2 82 2 82 -23 82 l-25 0 0 -155z"/>
<path d="M2955 535 l0 -155 58 0 c53 0 57 2 57 23 -1 20 -2 20 -11 5 -6 -11
-22 -18 -39 -18 l-30 0 0 70 c0 62 2 70 19 70 11 0 22 -6 24 -12 3 -7 6 -3 6
8 1 17 -4 20 -24 16 -25 -4 -25 -4 -25 67 l0 71 28 0 c20 0 32 -7 40 -22 10
-23 11 -23 11 5 1 26 0 27 -56 27 l-58 0 0 -155z"/>
<path d="M3091 663 c0 -27 1 -27 9 -5 5 12 16 22 25 22 14 0 16 -19 13 -150
-3 -144 -2 -150 17 -150 19 0 20 6 17 150 -3 128 -1 150 12 150 8 0 20 -8 25
-17 9 -16 10 -16 11 5 0 21 -4 22 -65 22 -64 0 -65 0 -64 -27z"/>
<path d="M2471 466 c-7 -41 -18 -77 -24 -80 -7 -2 -3 -5 8 -5 15 -1 20 6 21
27 1 15 4 51 8 80 11 79 0 62 -13 -22z"/>
</g>
</svg>
