<?xml version="1.0" standalone="no"?>
<!DOCTYPE svg PUBLIC "-//W3C//DTD SVG 20010904//EN"
 "http://www.w3.org/TR/2001/REC-SVG-20010904/DTD/svg10.dtd">
<svg version="1.0" xmlns="http://www.w3.org/2000/svg"
 width="370.000000pt" height="102.000000pt" viewBox="0 0 370.000000 102.000000"
 preserveAspectRatio="xMidYMid meet">

<g transform="translate(0.000000,102.000000) scale(0.100000,-0.100000)"
fill="#000000" stroke="none">
<path d="M0 510 l0 -510 1850 0 1850 0 0 510 0 510 -1850 0 -1850 0 0 -510z
m624 170 c8 25 9 25 13 3 2 -13 9 -23 14 -23 5 0 10 10 10 23 l2 22 4 -22 c2
-13 8 -23 13 -23 5 0 11 10 13 23 4 22 5 22 13 -3 l8 -25 7 25 7 25 8 -24 7
-25 10 25 10 24 6 -25 7 -25 8 25 c8 25 9 25 13 3 2 -13 9 -23 14 -23 5 0 10
10 10 23 l2 22 4 -22 c3 -13 13 -23 26 -25 14 -2 23 -11 25 -25 2 -13 12 -23
25 -26 22 -3 21 -4 -3 -15 -24 -10 -24 -11 -2 -11 12 -1 22 -5 22 -11 0 -5
-10 -10 -22 -11 -22 0 -22 -1 2 -11 25 -11 25 -11 3 -15 -13 -3 -23 -9 -23
-14 0 -5 10 -10 23 -10 l22 -2 -22 -4 c-13 -2 -23 -9 -23 -14 0 -5 10 -10 23
-10 l22 -2 -22 -4 c-13 -2 -23 -8 -23 -13 0 -5 10 -10 23 -13 22 -4 22 -4 -3
-15 -24 -10 -24 -11 -2 -11 12 -1 22 -5 22 -11 0 -5 -10 -10 -22 -11 -22 0
-22 -1 2 -11 24 -11 25 -12 3 -15 -13 -3 -23 -13 -25 -26 -2 -14 -11 -23 -25
-25 -15 -2 -23 -11 -24 -25 -2 -22 -2 -22 -6 1 -6 28 -20 28 -26 0 -4 -23 -5
-23 -13 2 l-8 25 -7 -25 -7 -25 -8 24 -7 25 -10 -25 -10 -24 -6 25 -7 25 -8
-25 c-8 -25 -9 -25 -13 -2 -2 12 -9 22 -14 22 -5 0 -10 -10 -10 -22 l-2 -23
-4 22 c-2 13 -8 23 -13 23 -5 0 -11 -10 -13 -23 -4 -22 -5 -22 -13 3 l-8 25
-7 -25 c-7 -24 -7 -24 -14 -3 -4 11 -16 23 -27 26 -11 3 -22 15 -25 26 -3 12
-13 22 -22 22 -14 1 -13 2 2 6 21 5 23 23 2 23 -21 0 -19 20 3 21 16 1 16 2 0
6 -22 5 -24 23 -3 23 21 0 19 20 -2 21 -17 1 -17 2 0 6 9 2 17 9 17 14 0 5 -8
10 -17 10 -17 1 -17 2 0 6 21 5 23 23 2 23 -21 0 -19 20 3 21 16 1 16 2 0 6
-10 2 -18 9 -18 14 0 5 8 10 18 10 16 1 16 2 0 6 -21 5 -24 23 -4 23 7 0 16 9
19 21 3 11 14 23 25 26 11 3 23 15 27 26 7 21 7 21 14 -3 l7 -25 8 25z m546
-118 c47 -38 16 -112 -47 -112 -29 0 -33 -3 -33 -25 0 -16 -6 -25 -15 -25 -12
0 -15 17 -15 90 l0 90 44 0 c27 0 52 -7 66 -18z m169 -8 c26 -33 26 -45 2 -75
-17 -22 -17 -27 -5 -44 18 -24 18 -35 0 -35 -7 0 -21 11 -30 25 -9 14 -25 25
-36 25 -15 0 -20 -7 -20 -25 0 -16 -6 -25 -15 -25 -12 0 -15 17 -15 90 l0 90
49 0 c42 0 53 -4 70 -26z m173 15 c11 -6 26 -26 34 -45 38 -90 -68 -164 -143
-100 -22 19 -28 32 -28 66 0 34 6 47 28 66 30 26 75 31 109 13z m133 -49 c16
-33 31 -60 35 -60 3 0 20 27 39 61 23 41 38 59 49 57 14 -3 17 -17 17 -88 0
-73 -2 -85 -17 -88 -16 -3 -18 5 -18 55 l-1 58 -30 -57 c-16 -32 -34 -58 -39
-58 -5 0 -23 26 -39 58 l-30 57 -1 -57 c0 -45 -3 -58 -15 -58 -12 0 -15 17
-15 90 0 80 2 90 18 90 13 0 28 -19 47 -60z m298 29 c33 -45 1 -99 -59 -99
-30 0 -34 -3 -34 -25 0 -16 -6 -25 -15 -25 -12 0 -15 17 -15 91 l0 90 51 -3
c43 -2 56 -8 72 -29z m157 16 c0 -9 -9 -15 -25 -15 -24 0 -25 -2 -25 -75 0
-60 -3 -75 -15 -75 -12 0 -15 15 -15 74 0 73 0 75 -27 78 -14 2 -28 9 -31 16
-3 9 15 12 67 12 56 0 71 -3 71 -15z m155 -45 c16 -33 32 -60 35 -60 3 0 19
27 35 60 19 41 34 60 47 60 16 0 18 -10 18 -90 0 -73 -3 -90 -15 -90 -12 0
-15 13 -15 58 l-1 57 -30 -57 c-16 -32 -34 -58 -39 -58 -5 0 -23 26 -39 58
l-30 57 -1 -57 c0 -45 -3 -58 -15 -58 -12 0 -15 17 -15 90 0 80 2 90 18 90 13
0 28 -19 47 -60z m276 -13 c41 -100 43 -107 24 -107 -9 0 -19 9 -22 20 -4 16
-14 20 -43 20 -29 0 -39 -4 -43 -20 -3 -11 -12 -20 -21 -20 -20 0 -21 -5 10
71 15 35 30 74 35 87 14 36 30 22 60 -51z m171 56 c22 -20 24 -76 3 -93 -14
-12 -14 -15 0 -36 19 -29 19 -34 0 -34 -8 0 -22 11 -31 25 -9 14 -25 25 -35
25 -14 0 -19 -7 -19 -25 0 -16 -6 -25 -15 -25 -12 0 -15 17 -15 90 l0 90 47 0
c29 0 53 -6 65 -17z m88 -19 l0 -35 44 35 c39 33 77 47 76 29 -1 -5 -18 -21
-39 -38 l-38 -30 45 -52 c42 -50 43 -53 21 -53 -16 1 -34 15 -54 40 -16 21
-34 38 -40 36 -5 -1 -11 -19 -13 -39 -3 -29 -7 -37 -23 -37 -17 0 -19 8 -19
90 0 83 1 90 20 90 16 0 20 -7 20 -36z m280 21 c0 -11 -12 -15 -45 -15 -38 0
-45 -3 -45 -20 0 -16 7 -20 35 -20 24 0 35 -5 35 -15 0 -10 -11 -15 -35 -15
-31 0 -35 -3 -35 -25 0 -23 4 -25 45 -25 33 0 45 -4 45 -15 0 -12 -14 -15 -65
-15 l-65 0 0 90 0 90 65 0 c51 0 65 -3 65 -15z m140 0 c0 -9 -9 -15 -25 -15
-24 0 -25 -2 -25 -75 0 -60 -3 -75 -15 -75 -12 0 -15 15 -15 75 0 73 -1 75
-25 75 -16 0 -25 6 -25 15 0 12 14 15 65 15 51 0 65 -3 65 -15z"/>
<path d="M560 490 l0 -150 155 0 155 0 0 150 0 150 -155 0 -155 0 0 -150z
m270 0 l0 -121 -117 3 -118 3 -3 104 c-1 58 0 111 2 118 4 10 35 13 121 13
l115 0 0 -120z"/>
<path d="M610 490 l0 -100 105 0 105 0 0 100 0 100 -105 0 -105 0 0 -100z"/>
<path d="M1090 511 c0 -36 3 -41 24 -41 30 0 49 22 44 52 -2 18 -10 24 -35 26
-32 3 -33 2 -33 -37z"/>
<path d="M1250 515 c0 -35 1 -36 33 -33 28 3 32 6 32 33 0 27 -4 30 -32 33
-32 3 -33 2 -33 -33z"/>
<path d="M1420 535 c-16 -19 -16 -71 1 -91 8 -10 26 -14 48 -12 29 2 38 8 45
31 6 17 6 37 0 55 -7 22 -16 28 -45 30 -23 2 -40 -2 -49 -13z"/>
<path d="M1850 511 c0 -36 3 -41 24 -41 30 0 49 22 44 52 -2 18 -10 24 -35 26
-32 3 -33 2 -33 -37z"/>
<path d="M2482 503 c-16 -29 -15 -33 8 -33 22 0 23 4 11 35 -8 19 -8 19 -19
-2z"/>
<path d="M2620 515 c0 -35 1 -36 33 -33 28 3 32 6 32 33 0 27 -4 30 -32 33
-32 3 -33 2 -33 -33z"/>
</g>
</svg>
